# xmcd
#
# Track frame offsets:
# 150
# 28563
# 48536
# 68975
#
# Disc length: 1172 seconds
#
#
# Revision: 0
# Processed by: cddbd v1.5.2PL0 Copyright (c) Steve Scherf et al.
# Submitted via: FreeRIP 2.944 
#
DISCID=31049204
DTITLE=The Bosshoss - Rodeo Radio  (Bonus DVD)
DYEAR=2006
DGENRE=Country
TTITLE0=I Say A Little Prayer
TTITLE1=Yeehaw (live)
TTITLE2=Remedy (live)
TTITLE3=Sabotage (live)
EXTD=
EXTT0=
EXTT1=
EXTT2=
EXTT3=
PLAYORDER=
